<svg width="118" height="32" viewBox="0 0 118 32" fill="none" xmlns="http://www.w3.org/2000/svg">
<rect width="116" height="32" rx="16" fill="white" fill-opacity="0.2"/>
<path d="M21.4319 7.9L21.2015 6H16V7.9H19.4933L20.9328 20.25H34.3685L36 7.9H21.4319ZM32.6699 18.35H22.6411L21.6814 9.8H33.8023L32.6699 18.35Z" fill="white"/>
<path d="M22.6987 25C23.7587 25 24.618 24.1493 24.618 23.1C24.618 22.0507 23.7587 21.2 22.6987 21.2C21.6386 21.2 20.7793 22.0507 20.7793 23.1C20.7793 24.1493 21.6386 25 22.6987 25Z" fill="white"/>
<path d="M31.3359 25C32.3959 25 33.2553 24.1493 33.2553 23.1C33.2553 22.0507 32.3959 21.2 31.3359 21.2C30.2758 21.2 29.4165 22.0507 29.4165 23.1C29.4165 24.1493 30.2758 25 31.3359 25Z" fill="white"/>
<path d="M50.8867 21H49.1641V12.4414H44.7822V21H43.0596V11.0469H50.8867V21ZM55.4053 18.6211L56.9092 13.6035H58.6797L55.7402 22.1211C55.2891 23.3652 54.5234 23.9873 53.4434 23.9873C53.2018 23.9873 52.9352 23.9463 52.6436 23.8643V22.5791L52.958 22.5996C53.3773 22.5996 53.6917 22.5221 53.9014 22.3672C54.1156 22.2168 54.2842 21.9616 54.4072 21.6016L54.6465 20.9658L52.0488 13.6035H53.8398L55.4053 18.6211ZM62.583 19.8105C62.9977 19.8105 63.3418 19.6898 63.6152 19.4482C63.8887 19.2067 64.0345 18.9082 64.0527 18.5527H65.6182C65.5999 19.013 65.4564 19.4437 65.1875 19.8447C64.9186 20.2412 64.554 20.5557 64.0938 20.7881C63.6335 21.0205 63.1367 21.1367 62.6035 21.1367C61.569 21.1367 60.7487 20.8018 60.1426 20.1318C59.5365 19.4619 59.2334 18.5368 59.2334 17.3564V17.1855C59.2334 16.0599 59.5342 15.1598 60.1357 14.4854C60.7373 13.8063 61.5576 13.4668 62.5967 13.4668C63.4762 13.4668 64.1917 13.7243 64.7432 14.2393C65.2992 14.7497 65.5908 15.4219 65.6182 16.2559H64.0527C64.0345 15.832 63.8887 15.4834 63.6152 15.21C63.3464 14.9365 63.0023 14.7998 62.583 14.7998C62.0452 14.7998 61.6305 14.9958 61.3389 15.3877C61.0472 15.7751 60.8991 16.3652 60.8945 17.1582V17.4248C60.8945 18.2269 61.0381 18.8262 61.3252 19.2227C61.6169 19.6146 62.0361 19.8105 62.583 19.8105ZM72.6934 14.9229H70.2939V21H68.6328V14.9229H66.2607V13.6035H72.6934V14.9229ZM73.2881 17.2334C73.2881 16.5088 73.4316 15.8571 73.7188 15.2783C74.0059 14.695 74.4092 14.2484 74.9287 13.9385C75.4482 13.624 76.0452 13.4668 76.7197 13.4668C77.7178 13.4668 78.5267 13.7881 79.1465 14.4307C79.7708 15.0732 80.1081 15.9255 80.1582 16.9873L80.165 17.377C80.165 18.1061 80.0238 18.7578 79.7412 19.332C79.4632 19.9062 79.0622 20.3506 78.5381 20.665C78.0186 20.9795 77.417 21.1367 76.7334 21.1367C75.6898 21.1367 74.8535 20.7904 74.2246 20.0977C73.6003 19.4004 73.2881 18.473 73.2881 17.3154V17.2334ZM74.9492 17.377C74.9492 18.138 75.1064 18.735 75.4209 19.168C75.7354 19.5964 76.1729 19.8105 76.7334 19.8105C77.2939 19.8105 77.7292 19.5918 78.0391 19.1543C78.3535 18.7168 78.5107 18.0765 78.5107 17.2334C78.5107 16.486 78.349 15.8936 78.0254 15.4561C77.7064 15.0186 77.2712 14.7998 76.7197 14.7998C76.1774 14.7998 75.7467 15.0163 75.4277 15.4492C75.1087 15.8776 74.9492 16.5202 74.9492 17.377Z" fill="white"/>
<rect width="118" height="32" rx="16" fill="white"/>
<path d="M51.4375 21H44.7451V19.8584L48.0605 16.2422C48.5391 15.709 48.8786 15.2646 49.0791 14.9092C49.2842 14.5492 49.3867 14.1891 49.3867 13.8291C49.3867 13.3551 49.2523 12.9723 48.9834 12.6807C48.7191 12.389 48.3613 12.2432 47.9102 12.2432C47.3724 12.2432 46.9554 12.4072 46.6592 12.7354C46.363 13.0635 46.2148 13.5124 46.2148 14.082H44.5537C44.5537 13.4759 44.6904 12.9313 44.9639 12.4482C45.2419 11.9606 45.6361 11.5824 46.1465 11.3135C46.6615 11.0446 47.2539 10.9102 47.9238 10.9102C48.89 10.9102 49.651 11.154 50.207 11.6416C50.7676 12.1247 51.0479 12.7946 51.0479 13.6514C51.0479 14.1481 50.9066 14.6699 50.624 15.2168C50.346 15.7591 49.888 16.3766 49.25 17.0693L46.8164 19.6738H51.4375V21ZM62.1152 14.9229H59.7158V21H58.0547V14.9229H55.6826V13.6035H62.1152V14.9229ZM62.71 17.2334C62.71 16.5088 62.8535 15.8571 63.1406 15.2783C63.4277 14.695 63.8311 14.2484 64.3506 13.9385C64.8701 13.624 65.4671 13.4668 66.1416 13.4668C67.1396 13.4668 67.9486 13.7881 68.5684 14.4307C69.1927 15.0732 69.5299 15.9255 69.5801 16.9873L69.5869 17.377C69.5869 18.1061 69.4456 18.7578 69.1631 19.332C68.8851 19.9062 68.484 20.3506 67.96 20.665C67.4404 20.9795 66.8389 21.1367 66.1553 21.1367C65.1117 21.1367 64.2754 20.7904 63.6465 20.0977C63.0221 19.4004 62.71 18.473 62.71 17.3154V17.2334ZM64.3711 17.377C64.3711 18.138 64.5283 18.735 64.8428 19.168C65.1572 19.5964 65.5947 19.8105 66.1553 19.8105C66.7158 19.8105 67.151 19.5918 67.4609 19.1543C67.7754 18.7168 67.9326 18.0765 67.9326 17.2334C67.9326 16.486 67.7708 15.8936 67.4473 15.4561C67.1283 15.0186 66.693 14.7998 66.1416 14.7998C65.5993 14.7998 65.1686 15.0163 64.8496 15.4492C64.5306 15.8776 64.3711 16.5202 64.3711 17.377ZM71.1182 21V13.6035H74.1191C75.1309 13.6035 75.901 13.7812 76.4297 14.1367C76.9583 14.4876 77.2227 14.9935 77.2227 15.6543C77.2227 15.9961 77.1156 16.3037 76.9014 16.5771C76.6917 16.846 76.3796 17.0534 75.9648 17.1992C76.4479 17.2995 76.8307 17.5023 77.1133 17.8076C77.3958 18.113 77.5371 18.473 77.5371 18.8877C77.5371 19.5758 77.2819 20.0999 76.7715 20.46C76.2656 20.82 75.5365 21 74.584 21H71.1182ZM72.7793 17.8486V19.6875H74.5977C75.4499 19.6875 75.876 19.3822 75.876 18.7715C75.876 18.1562 75.443 17.8486 74.5771 17.8486H72.7793ZM72.7793 16.6592H74.1465C75.0898 16.6592 75.5615 16.3812 75.5615 15.8252C75.5615 15.2419 75.1149 14.9411 74.2217 14.9229H72.7793V16.6592ZM83.3955 21C83.3226 20.8587 83.2588 20.6286 83.2041 20.3096C82.6755 20.861 82.0283 21.1367 81.2627 21.1367C80.5199 21.1367 79.9137 20.9248 79.4443 20.501C78.9749 20.0771 78.7402 19.5531 78.7402 18.9287C78.7402 18.1403 79.0319 17.5365 79.6152 17.1172C80.2031 16.6934 81.0417 16.4814 82.1309 16.4814H83.1494V15.9961C83.1494 15.6133 83.0423 15.3079 82.8281 15.0801C82.6139 14.8477 82.2881 14.7314 81.8506 14.7314C81.4723 14.7314 81.1624 14.8271 80.9209 15.0186C80.6794 15.2054 80.5586 15.4447 80.5586 15.7363H78.8975C78.8975 15.3307 79.0319 14.9525 79.3008 14.6016C79.5697 14.2461 79.9342 13.9681 80.3945 13.7676C80.8594 13.5671 81.3766 13.4668 81.9463 13.4668C82.8122 13.4668 83.5026 13.6855 84.0176 14.123C84.5326 14.556 84.7969 15.1667 84.8105 15.9551V19.291C84.8105 19.9564 84.904 20.4873 85.0908 20.8838V21H83.3955ZM81.5703 19.8037C81.8984 19.8037 82.2061 19.724 82.4932 19.5645C82.7848 19.4049 83.0036 19.1908 83.1494 18.9219V17.5273H82.2539C81.6387 17.5273 81.1761 17.6344 80.8662 17.8486C80.5563 18.0628 80.4014 18.3659 80.4014 18.7578C80.4014 19.0768 80.5062 19.332 80.7158 19.5234C80.93 19.7103 81.2148 19.8037 81.5703 19.8037ZM93.0273 17.377C93.0273 18.5208 92.7676 19.4346 92.248 20.1182C91.7285 20.7972 91.0312 21.1367 90.1562 21.1367C89.3451 21.1367 88.6956 20.8701 88.208 20.3369V23.8438H86.5469V13.6035H88.0781L88.1465 14.3555C88.6341 13.763 89.2972 13.4668 90.1357 13.4668C91.0381 13.4668 91.7445 13.804 92.2549 14.4785C92.7699 15.1484 93.0273 16.0804 93.0273 17.2744V17.377ZM91.373 17.2334C91.373 16.4951 91.2249 15.9095 90.9287 15.4766C90.637 15.0436 90.2178 14.8271 89.6709 14.8271C88.9919 14.8271 88.5042 15.1074 88.208 15.668V18.9492C88.5088 19.5234 89.001 19.8105 89.6846 19.8105C90.2132 19.8105 90.6257 19.5986 90.9219 19.1748C91.2227 18.7464 91.373 18.0993 91.373 17.2334ZM98.8584 21C98.7855 20.8587 98.7217 20.6286 98.667 20.3096C98.1383 20.861 97.4912 21.1367 96.7256 21.1367C95.9827 21.1367 95.3766 20.9248 94.9072 20.501C94.4378 20.0771 94.2031 19.5531 94.2031 18.9287C94.2031 18.1403 94.4948 17.5365 95.0781 17.1172C95.666 16.6934 96.5046 16.4814 97.5938 16.4814H98.6123V15.9961C98.6123 15.6133 98.5052 15.3079 98.291 15.0801C98.0768 14.8477 97.751 14.7314 97.3135 14.7314C96.9352 14.7314 96.6253 14.8271 96.3838 15.0186C96.1423 15.2054 96.0215 15.4447 96.0215 15.7363H94.3604C94.3604 15.3307 94.4948 14.9525 94.7637 14.6016C95.0326 14.2461 95.3971 13.9681 95.8574 13.7676C96.3223 13.5671 96.8395 13.4668 97.4092 13.4668C98.2751 13.4668 98.9655 13.6855 99.4805 14.123C99.9954 14.556 100.26 15.1667 100.273 15.9551V19.291C100.273 19.9564 100.367 20.4873 100.554 20.8838V21H98.8584ZM97.0332 19.8037C97.3613 19.8037 97.6689 19.724 97.9561 19.5645C98.2477 19.4049 98.4665 19.1908 98.6123 18.9219V17.5273H97.7168C97.1016 17.5273 96.639 17.6344 96.3291 17.8486C96.0192 18.0628 95.8643 18.3659 95.8643 18.7578C95.8643 19.0768 95.9691 19.332 96.1787 19.5234C96.3929 19.7103 96.6777 19.8037 97.0332 19.8037Z" fill="#323232"/>
<path d="M23.0336 26C24.1466 26 25.0489 25.1046 25.0489 24C25.0489 22.8954 24.1466 22 23.0336 22C21.9205 22 21.0182 22.8954 21.0182 24C21.0182 25.1046 21.9205 26 23.0336 26Z" fill="#343434"/>
<path d="M32.1027 26C33.2157 26 34.118 25.1046 34.118 24C34.118 22.8954 33.2157 22 32.1027 22C30.9896 22 30.0873 22.8954 30.0873 24C30.0873 25.1046 30.9896 26 32.1027 26Z" fill="#343434"/>
<path d="M21.7035 8L21.4616 6H16V8H19.6679L21.1795 21H35.2869L37 8H21.7035ZM33.5034 19H22.9731L21.9655 10H34.6924L33.5034 19Z" fill="#343434"/>
<path d="M21.9351 10.03L22.973 19H33.5032L34.6923 10.03H21.9351Z" fill="#E84D37"/>
</svg>
